HIERARCHY
ROOT Hips
{
	OFFSET 0.000000 0.000000 0.000000
	CHANNELS 6 Xposition Yposition Zposition Xrotation Yrotation Zrotation
	JOINT LeftUpLeg_virtual
	{
		OFFSET 0.000000 0.000000 0.000000
		CHANNELS 3 Xrotation Yrotation Zrotation
		JOINT LeftUpLeg
		{
			OFFSET 10.205400 -3.823500 0.155100
			CHANNELS 3 Xrotation Yrotation Zrotation
			JOINT LeftLeg
			{
				OFFSET 0.708757 -12.982077 0.567790
				CHANNELS 3 Xrotation Yrotation Zrotation
				JOINT LeftFoot
				{
					OFFSET -0.708756 -10.717838 -2.184338
					CHANNELS 3 Xrotation Yrotation Zrotation
					JOINT LeftToeBase
					{
						OFFSET 0.108149 -7.191104 7.560241
						CHANNELS 3 Xrotation Yrotation Zrotation
						JOINT LeftToe_End
						{
							OFFSET 0.070230 0.081724 4.490308
							CHANNELS 3 Xrotation Yrotation Zrotation
							End Site
							{
								OFFSET 0 0 0
							}
						}
					}
				}
			}
		}
	}
	JOINT RightUpLeg_virtual
	{
		OFFSET 0.000000 0.000000 0.000000
		CHANNELS 3 Xrotation Yrotation Zrotation
		JOINT RightUpLeg
		{
			OFFSET -10.205400 -3.823500 0.005500
			CHANNELS 3 Xrotation Yrotation Zrotation
			JOINT RightLeg
			{
				OFFSET -0.708756 -12.982134 0.610632
				CHANNELS 3 Xrotation Yrotation Zrotation
				JOINT RightFoot
				{
					OFFSET 0.708754 -10.717769 -1.945823
					CHANNELS 3 Xrotation Yrotation Zrotation
					JOINT RightToeBase
					{
						OFFSET -0.108140 -7.191069 7.372968
						CHANNELS 3 Xrotation Yrotation Zrotation
						JOINT RightToe_End
						{
							OFFSET -0.070227 0.081735 4.479403
							CHANNELS 3 Xrotation Yrotation Zrotation
							End Site
							{
								OFFSET 0 0 0
							}
						}
					}
				}
			}
		}
	}
	JOINT Spine_virtual
	{
		OFFSET 0.000000 0.000000 0.000000
		CHANNELS 3 Xrotation Yrotation Zrotation
		JOINT Spine
		{
			OFFSET 0.000000 6.876099 0.125700
			CHANNELS 3 Xrotation Yrotation Zrotation
			JOINT Spine1
			{
				OFFSET 0.000000 5.730043 0.104720
				CHANNELS 3 Xrotation Yrotation Zrotation
				JOINT Spine1_split
				{
					OFFSET 0.000000 5.730043 0.104720
					CHANNELS 3 Xrotation Yrotation Zrotation
					JOINT Spine2
					{
						OFFSET 0.000000 5.730043 0.104720
						CHANNELS 3 Xrotation Yrotation Zrotation
						JOINT Neck_virtual
						{
							OFFSET 0.000000 0.000000 0.000000
							CHANNELS 3 Xrotation Yrotation Zrotation
							JOINT Neck
							{
								OFFSET 0.000000 10.314075 0.188496
								CHANNELS 3 Xrotation Yrotation Zrotation
								JOINT Head
								{
									OFFSET 0.000000 7.643700 -2.377400
									CHANNELS 3 Xrotation Yrotation Zrotation
									JOINT HeadTop_End
									{
										OFFSET 0.000000 43.788605 -13.619600
										CHANNELS 3 Xrotation Yrotation Zrotation
										End Site
										{
											OFFSET 0 0 0
										}
									}
								}
							}
						}
						JOINT LeftShoulder_virtual
						{
							OFFSET 0.000000 0.000000 0.000000
							CHANNELS 3 Xrotation Yrotation Zrotation
							JOINT LeftShoulder
							{
								OFFSET 2.196100 4.412489 0.087492
								CHANNELS 3 Xrotation Yrotation Zrotation
								JOINT LeftShoulder_split
								{
									OFFSET 2.196100 4.412489 0.087492
									CHANNELS 3 Xrotation Yrotation Zrotation
									JOINT LeftArm
									{
										OFFSET 8.771219 -2.981674 -0.026999
										CHANNELS 3 Xrotation Yrotation Zrotation
										JOINT LeftForeArm
										{
											OFFSET 8.512804 0.000000 -0.000000
											CHANNELS 3 Xrotation Yrotation Zrotation
											JOINT LeftHand
											{
												OFFSET 18.484802 0.000000 -0.000000
												CHANNELS 3 Xrotation Yrotation Zrotation
												End Site
												{
													OFFSET 0 0 0
												}
											}
										}
									}
								}
							}
						}
						JOINT RightShoulder_virtual
						{
							OFFSET 0.000000 0.000000 0.000000
							CHANNELS 3 Xrotation Yrotation Zrotation
							JOINT RightShoulder
							{
								OFFSET -2.196100 4.412496 0.070690
								CHANNELS 3 Xrotation Yrotation Zrotation
								JOINT RightShoulder_split
								{
									OFFSET -2.196100 4.412496 0.070690
									CHANNELS 3 Xrotation Yrotation Zrotation
									JOINT RightArm
									{
										OFFSET -8.771282 -2.981682 -0.094208
										CHANNELS 3 Xrotation Yrotation Zrotation
										JOINT RightForeArm
										{
											OFFSET -8.494598 0.000000 0.000000
											CHANNELS 3 Xrotation Yrotation Zrotation
											JOINT RightHand
											{
												OFFSET -18.483803 0.000000 0.000001
												CHANNELS 3 Xrotation Yrotation Zrotation
												End Site
												{
													OFFSET 0 0 0
												}
											}
										}
									}
								}
							}
						}
					}
				}
			}
		}
	}
}
MOTION
Frames: 4
Frame Time: 0.03333333
26.706974 31.996140 17.640615 0.000000 0.000000 0.000000 0.383380 66.432011 -4.088472 -37.593723 -12.496487 -3.875657 21.631921 -3.551884 -5.869560 14.171218 -17.885346 -2.223691 1.129726 -3.272673 2.156093 0.000000 0.000000 0.000000 1.424122 70.349063 -5.444456 23.767306 -9.002439 5.181724 24.967755 7.334644 -2.643704 -12.236999 -21.468077 13.208880 -36.046344 0.223474 2.046216 0.000000 0.000000 0.000000 -0.323066 62.962965 -4.111552 6.366890 14.707648 -2.130841 -1.103756 12.437908 -1.440658 1.119028 -1.558812 0.474263 0.000000 0.000000 0.000000 -0.390423 12.388418 -1.801768 25.854614 -15.592402 7.714776 -32.238172 -68.252188 -1.625735 0.000000 0.000000 0.000000 -0.841773 12.374763 -1.423610 -2.979729 -7.479502 -16.046633 1.360327 3.599697 -4.428830 27.088984 -53.262078 -28.950109 -2.246069 -70.919616 -2.566830 0.000000 0.000000 0.000000 -1.127454 11.958592 -2.241607 -6.624473 32.316500 19.460232 -6.004809 -0.658629 1.997126 -3.979139 27.030665 53.999366 -3.590287 49.720389 -0.288193 0.000000 0.000000 0.000000 
26.494471 31.976171 17.490988 0.000000 0.000000 0.000000 0.231649 64.130162 -3.637650 -37.878047 -12.472103 -3.286084 22.575891 -2.290400 -6.091305 13.476485 -17.516855 -2.073887 1.598049 -3.264209 2.010617 0.000000 0.000000 0.000000 1.197048 68.067056 -4.970928 24.176790 -10.164807 4.132059 23.325403 5.947651 -2.693880 -16.973206 -22.921107 9.045782 -27.814465 -0.067346 3.141807 0.000000 0.000000 0.000000 -0.203623 60.803457 -4.099287 6.505120 14.293753 -2.113671 -0.984598 11.936501 -1.214017 1.024669 -1.709476 0.528166 0.000000 0.000000 0.000000 -0.322320 11.925252 -1.567790 23.990899 -15.063950 6.935853 -31.206082 -67.692229 -0.937084 0.000000 0.000000 0.000000 -0.916648 11.962316 -1.288923 -2.903890 -7.027328 -15.984791 0.626999 3.756696 -4.343531 28.789794 -55.271632 -27.681006 -0.874759 -68.489708 -1.399418 0.000000 0.000000 0.000000 -1.081082 11.603437 -2.002743 -6.923064 31.473478 20.422390 -5.969362 -0.375914 2.243093 -4.613983 25.452685 54.655498 -3.367765 49.300753 -0.350681 0.000000 0.000000 0.000000 
26.236008 31.921839 17.333126 0.000000 0.000000 0.000000 0.234206 61.532648 -3.227287 -38.348609 -12.208660 -2.454561 24.083187 -0.969536 -6.374852 12.259827 -17.161924 -2.193757 1.929997 -3.223864 1.967783 0.000000 0.000000 0.000000 1.279553 65.425474 -4.584619 24.585831 -11.224579 2.952740 21.772755 4.364826 -2.809297 -20.840587 -24.829479 5.422490 -20.539238 -0.163928 3.916381 0.000000 0.000000 0.000000 -0.161491 58.591979 -3.897438 6.604919 13.846378 -2.115221 -0.861299 11.388319 -1.067440 0.863567 -1.857179 0.541735 0.000000 0.000000 0.000000 -0.253036 11.392472 -1.410947 21.688873 -14.445642 5.692034 -29.361880 -66.843141 0.168152 0.000000 0.000000 0.000000 -0.938596 11.467456 -1.220994 -2.845884 -6.608911 -15.946330 0.177526 4.135175 -4.187780 29.700343 -56.801984 -27.095214 0.576087 -66.329941 -0.243914 0.000000 0.000000 0.000000 -0.953602 11.172612 -1.834072 -7.113341 30.632729 21.258088 -5.693081 -0.289313 2.477889 -5.068683 24.590267 54.497721 -3.142291 49.058530 -0.365203 0.000000 0.000000 0.000000 
25.951263 31.831444 17.171471 0.000000 0.000000 0.000000 0.405363 58.725229 -2.896828 -38.865460 -11.739240 -1.363509 26.016100 0.309983 -6.681394 10.723061 -16.706571 -2.441215 1.941909 -3.164145 2.001773 0.000000 0.000000 0.000000 1.693384 62.536741 -4.362151 24.927499 -11.974854 1.760456 20.080176 3.244157 -3.056311 -23.681359 -26.726076 3.353255 -15.502680 -0.069247 3.884097 0.000000 0.000000 0.000000 -0.056716 56.270773 -3.624627 6.627038 13.357435 -2.113037 -0.749358 10.786739 -0.964064 0.737818 -2.007554 0.590383 0.000000 0.000000 0.000000 -0.203275 10.779905 -1.287601 19.091303 -13.678016 3.820138 -26.428754 -65.529094 1.878392 0.000000 0.000000 0.000000 -0.928465 10.883048 -1.173479 -2.808204 -6.213333 -15.993750 0.046710 4.472811 -4.020044 29.285133 -57.530383 -27.778499 1.834045 -64.946377 0.692309 0.000000 0.000000 0.000000 -0.773947 10.627064 -1.720743 -7.165989 29.797885 21.905532 -5.350841 -0.444461 2.712522 -4.784926 24.405197 53.357588 -2.915555 49.603771 -0.349529 0.000000 0.000000 0.000000 
